<?xml version="1.0" encoding="UTF-8"?>
<svg id="Laag_1" data-name="Laag 1" xmlns="http://www.w3.org/2000/svg" viewBox="0 0 770.44 730.53">
  <defs>
    <style>
      .cls-1 {
        stroke: #1d1d1b;
      }

      .cls-1, .cls-2 {
        stroke-miterlimit: 10;
      }

      .cls-1, .cls-3 {
        fill: #1d1d1b;
      }

      .cls-2 {
        stroke: #fff;
      }

      .cls-2, .cls-4 {
        fill: #fff;
      }

      .cls-5 {
        fill: #e00916;
      }
    </style>
  </defs>
  <path class="cls-5" d="M770.44,366.41c0,69.57-20.38,134.61-55.76,190.02-1.08,1.67-2.16,3.34-3.31,5.01-31.25-91.32-131.22-112.49-194.64-100.86-63.89,11.7-85.62,29.2-131.02,47.45l-.88.82c-45.33-18.38-67.03-35.98-130.85-47.87-63.42-11.8-163.48,9.04-195.04,100.33-1.08-1.64-2.16-3.24-3.21-4.88C20.38,501.01,0,435.97,0,366.41,0,164.03,172.46,0,385.22,0s385.22,164.03,385.22,366.41Z"/>
  <path class="cls-3" d="M714.69,554.46c-.57,2.88-1.45,5.21-2.63,6.98-.2-.66-.44-1.31-.68-1.97-31.25-91.32-131.22-112.49-194.64-100.86-63.89,11.7-85.62,29.2-131.02,47.45l-.88.82c-45.33-18.38-67.03-35.98-130.85-47.87-63.42-11.8-163.48,9.04-195.04,100.33-.2.62-.44,1.25-.64,1.9-1.15-1.74-1.99-4-2.57-6.78-13.6-65.73,125.82-412.51,125.82-412.51l76.21,111.31,255.76-.43,76.54-111.05s138.14,346.55,124.6,412.67Z"/>
  <path class="cls-4" d="M383.54,102.31l52.58,196.78s-17.02,24.87-50.3,24.87-51.48-23.56-51.48-23.56l49.21-198.09Z"/>
  <path class="cls-4" d="M711.43,559.13c-68.18,102.99-188.76,171.41-326.16,171.41s-258.09-68.48-326.26-171.54c31.56-91.29,131.62-112.13,195.04-100.33,63.82,11.89,85.52,29.49,130.85,47.87l.88-.82c45.39-18.25,67.13-35.75,131.02-47.45,63.42-11.63,163.38,9.54,194.64,100.86Z"/>
  <g>
    <ellipse class="cls-1" cx="245.52" cy="566.95" rx="83.09" ry="69.18"/>
    <ellipse class="cls-2" cx="190.73" cy="555.84" rx="30.36" ry="27.8"/>
  </g>
  <g>
    <ellipse class="cls-1" cx="532.46" cy="566.95" rx="83.09" ry="69.18"/>
    <ellipse class="cls-2" cx="587.58" cy="561.44" rx="30.36" ry="27.8"/>
  </g>
</svg>